<?xml version="1.0" standalone="no"?>
<!DOCTYPE svg PUBLIC "-//W3C//DTD SVG 20010904//EN"
 "http://www.w3.org/TR/2001/REC-SVG-20010904/DTD/svg10.dtd">
<svg version="1.0" xmlns="http://www.w3.org/2000/svg"
 width="1500.000000pt" height="1500.000000pt" viewBox="0 0 1500.000000 1500.000000"
 preserveAspectRatio="xMidYMid meet">
<metadata>
Created by potrace 1.14, written by Peter Selinger 2001-2017
</metadata>
<g transform="translate(0.000000,1500.000000) scale(0.100000,-0.100000)"
fill="#000000" stroke="none">
<path d="M4817 9796 c-80 -22 -215 -125 -282 -215 -58 -81 -201 -475 -295
-819 -154 -561 -201 -1148 -115 -1421 54 -169 173 -271 314 -271 69 0 207 84
332 202 39 36 52 58 78 133 18 50 38 101 45 114 13 24 13 24 59 -35 26 -32 74
-112 108 -179 108 -210 175 -297 262 -343 31 -16 45 -18 78 -11 95 22 204 108
250 196 20 40 24 62 24 138 l0 90 -148 240 c-161 262 -211 321 -297 352 -28
10 -50 20 -50 24 0 10 111 103 175 146 66 45 369 350 398 401 18 31 18 31 -8
48 -24 16 -30 16 -88 0 -85 -24 -167 -66 -351 -181 -111 -69 -173 -116 -208
-155 -79 -87 -273 -350 -393 -532 -60 -92 -113 -168 -117 -168 -28 -1 -32 494
-5 700 45 333 89 508 269 1049 102 307 110 339 105 391 -5 64 -20 94 -54 109
-28 13 -25 13 -86 -3z"/>
<path d="M6684 9801 c-87 -21 -250 -151 -312 -249 -35 -55 -141 -335 -207
-547 -237 -760 -298 -1482 -148 -1757 90 -165 284 -225 457 -139 79 39 108 76
114 146 5 60 -11 97 -69 164 -112 127 -136 410 -73 881 38 291 85 469 274
1044 102 309 102 310 91 365 -7 38 -19 63 -36 79 -27 23 -40 25 -91 13z"/>
<path d="M3400 9443 c-138 -23 -189 -119 -162 -304 41 -281 268 -449 469 -347
84 41 88 54 88 251 0 158 -2 176 -23 222 -43 93 -115 144 -241 171 -66 14 -85
15 -131 7z"/>
<path d="M9571 8705 c-29 -7 -99 -35 -155 -63 -134 -67 -402 -244 -446 -295
-100 -116 -165 -230 -189 -331 -7 -27 -12 -88 -12 -135 1 -252 105 -386 505
-645 65 -42 116 -79 114 -82 -3 -2 -46 0 -97 5 -161 17 -264 -11 -335 -90 -56
-62 -79 -124 -60 -161 46 -89 373 -212 594 -224 l105 -6 193 111 c257 147 248
140 263 207 16 70 3 137 -42 230 -40 81 -158 195 -283 274 -224 141 -276 178
-338 242 -47 48 -79 93 -104 145 -35 73 -36 77 -25 132 15 78 81 208 135 265
l45 49 74 -5 c80 -5 159 -35 214 -82 48 -41 82 -119 93 -215 11 -99 34 -145
74 -149 44 -5 83 13 223 106 144 96 143 94 143 201 -1 181 -116 378 -269 460
-121 64 -292 87 -420 56z"/>
<path d="M7871 8649 c-200 -18 -381 -64 -530 -134 -273 -130 -428 -328 -492
-630 -20 -90 -17 -306 4 -384 40 -147 122 -265 224 -318 147 -79 337 -66 510
33 79 46 286 190 313 218 l24 27 18 -83 c55 -255 215 -406 400 -377 96 15 168
55 196 109 33 64 25 129 -43 340 -41 127 -58 196 -61 250 -7 103 20 394 41
453 56 154 -114 407 -321 475 -76 25 -165 32 -283 21z m-40 -395 c30 -9 71
-25 92 -36 38 -19 38 -19 32 -66 -30 -234 -150 -479 -307 -628 -54 -52 -74
-58 -146 -44 -76 16 -142 79 -166 159 -21 70 -21 234 -1 320 32 136 135 283
210 300 69 15 226 13 286 -5z"/>
<path d="M2456 8595 c-153 -54 -368 -298 -612 -699 l-74 -120 0 105 c0 208
-34 586 -54 607 -2 2 -80 -30 -173 -70 -166 -72 -168 -74 -190 -118 -35 -72
-47 -198 -39 -435 8 -272 30 -446 83 -665 26 -110 74 -224 97 -233 41 -16 155
33 222 95 70 65 82 92 104 239 30 199 48 281 91 411 68 210 165 387 278 511
48 51 57 57 93 57 116 0 184 -211 158 -490 -18 -200 -67 -371 -219 -772 -39
-103 -71 -194 -71 -202 0 -37 70 -45 185 -21 197 42 346 182 441 416 100 245
149 755 97 999 -42 196 -139 321 -288 373 -69 24 -89 26 -129 12z"/>
<path d="M13264 8526 c-34 -8 -95 -30 -135 -48 -113 -52 -347 -207 -413 -274
-200 -200 -319 -462 -333 -735 -18 -357 90 -686 279 -854 98 -86 299 -165 419
-165 95 0 277 74 446 183 39 25 88 54 109 65 51 26 160 140 213 222 51 78 89
193 71 214 -6 8 -32 22 -57 30 -43 15 -48 15 -91 -4 -74 -33 -171 -108 -293
-227 -132 -129 -148 -136 -245 -108 -104 29 -188 89 -252 179 l-33 45 69 35
c239 120 460 328 570 536 103 193 154 446 121 602 -47 223 -235 351 -445 304z
m-13 -321 c81 -29 138 -104 154 -202 9 -54 -18 -196 -56 -293 -57 -150 -179
-302 -351 -440 -74 -60 -103 -78 -108 -68 -17 29 -40 208 -40 304 0 251 87
469 263 657 58 62 70 66 138 42z"/>
<path d="M3542 8455 c-39 -20 -126 -77 -194 -126 l-122 -90 3 -42 c5 -58 5
-59 -13 -172 -83 -530 16 -923 257 -1013 65 -25 102 -27 179 -11 129 27 186
96 175 214 -3 33 -31 139 -62 235 -33 102 -59 202 -62 240 -3 36 2 147 12 247
30 314 13 443 -69 522 l-32 31 -72 -35z"/>
<path d="M11335 8003 c-468 -23 -562 -34 -650 -78 -44 -22 -60 -40 -135 -152
-47 -71 -86 -136 -88 -145 -4 -24 22 -23 213 1 260 34 468 44 754 37 146 -3
305 -9 353 -12 105 -7 123 1 221 105 65 70 171 227 161 242 -4 7 -689 9 -829
2z"/>
</g>
</svg>
